<svg xmlns="http://www.w3.org/2000/svg" xmlns:svg="http://www.w3.org/2000/svg" id="svg2" width="256" height="256" version="1.1"><metadata id="metadata7"/><g id="layer1" transform="translate(0,-796.36218)"><text id="text2985" x="17.484" y="960.154" xml:space="preserve" style="font-size:40px;font-style:normal;font-weight:400;line-height:125%;letter-spacing:0;word-spacing:0;fill:#000;fill-opacity:1;stroke:none;font-family:Sans"><tspan id="tspan2987" x="17.484" y="960.154" style="font-size:144px;font-style:italic;font-variant:normal;font-weight:400;font-stretch:normal;font-family:Marion;-inkscape-font-specification:Marion Italic">f(</tspan></text><g id="g3049" transform="matrix(1,0,-0.14321097,1,93.47233,874.64424)"><g id="Livello_46"><path id="path3040" d="m 32.909,24.472 c 0,-5.621 -4.535,-10.181 -10.129,-10.181 -5.594,0 -10.127,4.56 -10.127,10.181 0,5.621 4.533,10.178 10.127,10.178 5.594,0 10.129,-4.556 10.129,-10.178 M 9.717,87.969 c 0,0 -0.098,0.134 -0.239,0.354 h 120.996 c -0.011,-0.013 -0.019,-0.021 -0.027,-0.037 L 89.151,32.069 c 0,0 -4.896,-6.664 -9.789,0 L 53.807,66.86 44.407,54.055 c 0,0 -4.895,-6.662 -9.787,0 L 9.717,87.969 z m 124.85,3.987 H 5.382 V 5.409 h 129.186 v 86.547 l -0.001,0 z m 5.384,2.704 V 2.705 C 139.951,1.211 138.746,0 137.261,0 H 2.692 C 1.206,0 0,1.211 0,2.705 V 94.66 c 0,1.494 1.205,2.705 2.691,2.705 h 134.57 c 1.485,0 2.69,-1.211 2.69,-2.705"/></g></g><text id="text3054" x="216.77" y="962.297" xml:space="preserve" style="font-size:144px;font-style:italic;font-variant:normal;font-weight:400;font-stretch:normal;line-height:125%;letter-spacing:0;word-spacing:0;fill:#000;fill-opacity:1;stroke:none;font-family:Marion;-inkscape-font-specification:Marion Italic"><tspan id="tspan3056" x="216.77" y="962.297">)</tspan></text></g></svg>